<svg width="115" height="81" viewBox="0 0 115 81" fill="none" xmlns="http://www.w3.org/2000/svg">
<path d="M68.9729 57.7072C68.9752 57.9895 68.9205 58.3587 68.8635 58.663C68.4656 60.8031 66.6985 63.2046 64.2113 62.9861C61.9571 62.7885 60.1211 61.3478 60.1211 59.3275C60.1211 57.3071 61.9526 55.6689 64.2113 55.6689C66.47 55.6689 68.9587 55.6868 68.9729 57.7072Z" fill="white"/>
<path d="M64.2112 56.0079C62.9979 56.0079 60.2289 56.4548 59.5934 56.4548C58.4708 56.4548 57.5603 57.3927 57.5603 58.55C57.5603 59.1068 57.7746 59.6096 58.1179 59.9847C58.1179 59.9847 58.8717 60.9914 60.2296 60.5085C60.8239 60.297 61.7906 58.7266 63.4925 58.4772C64.3401 58.3525 65.928 59.2255 68.7188 59.2464C68.8387 58.9032 68.8634 58.6648 68.8634 58.6648C68.8634 56.6424 66.4698 56.0079 64.2112 56.0079Z" fill="#E476B3"/>
<path d="M68.8634 58.6629C68.8634 58.6629 70.5001 58.2209 71.5178 56.439C72.704 54.3608 72.5482 52.1369 72.5482 52.1369C73.7502 49.1437 72.1735 46.3372 72.1735 46.3372C72.0169 43.1774 70.5495 41.8684 70.5495 41.8684C69.5971 38.8544 67.4898 38.0442 67.4898 38.0442C65.8351 35.4671 62.8997 35.5499 62.8997 35.5499C62.8997 35.5499 60.1495 34.208 56.374 35.7166C55.7498 35.966 53.6575 36.5477 52.1272 37.7948C47.3041 41.7258 46.9392 47.8557 47.0066 48.8524C47.3805 54.4226 50.3159 55.4203 52.1894 56.002C52.6263 57.5814 54.2345 60.4917 57.1227 59.4112C60.6823 58.5801 62.1811 57.1663 63.0556 57.1663C63.9302 57.1663 66.3657 58.4135 68.8634 58.6629Z" fill="#E476B3"/>
<path d="M59.861 49.7065C61.6056 48.4544 59.1652 53.8995 60 54.0002C60.2653 54.0322 63.9025 48.7287 64.1565 48.7267C65.6433 48.6818 66.8476 47.8477 67.3804 47.0406C67.5168 46.8331 67.5011 46.5188 67.3459 46.3362C67.1916 46.1546 66.9555 46.1736 66.8169 46.3811C66.4062 47.0037 59.5635 41.8365 58.309 41.8745C58.0842 41.8834 63.6889 47.7081 63.4551 47.6791C62.5596 47.5684 61.4475 47.4327 59.505 48.8285C59.0067 49.1867 58.3232 49.3194 57.5828 49.4191C55.9364 46.2554 56.9271 43.4997 57.2104 42.8432C57.2381 42.8452 57.2651 42.8572 57.2936 42.8572C57.5933 42.8572 57.8946 42.7594 58.1674 42.5539C58.3472 42.4182 58.4109 42.1139 58.309 41.8745C58.2071 41.635 57.9785 41.5502 57.7987 41.6859C57.3191 42.0471 56.6881 41.8385 56.3898 41.22C56.2782 40.9875 53.9251 39.907 53.7512 40.0566C53.5773 40.2053 55.6479 41.5263 55.7596 41.7577C55.9372 42.1279 56.1875 42.4062 56.47 42.5928C56.0796 43.6484 55.3384 46.424 56.7488 49.5279C55.7566 49.6576 54.7629 49.8442 53.985 50.5116C53.4829 50.9426 52.9696 51.5732 52.5776 52.2985C52.1063 52.1908 50.3804 51.6251 50.0792 49.0749C50.2665 48.8814 50.4179 48.626 50.5116 48.3107C50.588 48.0543 56.7488 49.5279 56.3898 48.6143C56.1972 48.5125 49.8911 47.6871 49.8146 47.9435C49.7479 48.168 49.6273 48.3316 49.4744 48.4035C49.323 48.4753 49.1514 48.4514 48.9925 48.3336C48.8104 48.1989 48.5834 48.2877 48.483 48.5272C48.3825 48.7676 48.4477 49.0719 48.6283 49.2056C48.8412 49.3633 49.069 49.4431 49.2953 49.4431C49.323 49.4431 49.3493 49.4261 49.377 49.4241C49.7337 51.8316 51.1628 52.8892 52.1737 53.2094C52.0418 53.5965 51.9527 53.9956 51.9257 54.3987C51.9077 54.6721 52.0598 54.9155 52.2659 54.9395L52.2996 54.9415C52.4915 54.9415 59.9828 54.2606 60 54.0002C60.0809 52.79 53.6208 52.0122 54.3912 51.3487C55.1136 50.7291 56.171 50.5984 57.1947 50.4717C58.1876 50.351 59.1258 50.2353 59.861 49.7065ZM69.5027 48.2059C69.4045 48.4474 69.472 48.7507 69.6526 48.8814C69.7095 48.9233 69.7717 48.9432 69.8324 48.9432C69.9643 48.9432 70.0925 48.8504 70.1607 48.6848C70.1749 48.6509 71.541 45.2437 68.9834 42.954C68.8125 42.8023 68.5794 42.8612 68.4633 43.0897C68.3479 43.3181 68.3936 43.6284 68.5652 43.7821C70.5466 45.556 69.5462 48.0982 69.5027 48.2059ZM53.97 40.1504C54.0869 40.1504 54.2016 40.0786 54.2743 39.9429C55.3609 37.9305 58.2453 41.8425 58.309 41.8745C58.5031 41.9682 57.337 38.6129 57.409 38.3555C57.4809 38.0971 57.382 37.8108 57.1879 37.715C56.4685 37.3598 54.8071 37.2481 53.6658 39.3612C53.5451 39.5837 53.5833 39.896 53.7512 40.0566C53.8179 40.1205 53.8943 40.1504 53.97 40.1504ZM58.309 41.8745C59.9764 41.6939 66.1919 39.6955 66.2263 39.7713C66.2968 39.9289 66.4212 40.0167 66.5493 40.0167C66.6138 40.0167 66.6797 39.9948 66.7389 39.9479C66.9173 39.8082 66.9772 39.5029 66.8731 39.2654C66.8326 39.1746 65.8689 37.0525 63.7076 37.272C63.5016 37.293 63.3479 37.5334 63.3637 37.8088C63.3802 38.0832 58.1097 41.8994 58.309 41.8745ZM70.623 52.8443C70.4387 52.8303 70.2356 53.0249 70.2191 53.3002C70.2176 53.3182 61.3107 53.4266 60 54.0002C59.8037 54.086 68.4843 55.9561 68.5495 56.2185C68.6004 56.428 68.7481 56.5617 68.9054 56.5617C68.9444 56.5617 68.9834 56.5538 69.0223 56.5368C70.7999 55.7606 70.9603 53.4798 70.9663 53.383C70.982 53.1077 70.8291 52.8662 70.623 52.8443Z" fill="white"/>
<path d="M13.888 64.64C12.1813 64.64 10.56 64.4267 9.024 64C7.53067 63.5307 6.144 62.8907 4.864 62.08C3.584 61.2267 2.47467 60.224 1.536 59.072L5.248 55.36C6.35733 56.7253 7.63733 57.7493 9.088 58.432C10.5387 59.072 12.16 59.392 13.952 59.392C15.744 59.392 17.1307 59.0933 18.112 58.496C19.0933 57.856 19.584 56.9813 19.584 55.872C19.584 54.7627 19.1787 53.9093 18.368 53.312C17.6 52.672 16.5973 52.16 15.36 51.776C14.1227 51.3493 12.8 50.944 11.392 50.56C10.0267 50.1333 8.72533 49.6 7.488 48.96C6.25067 48.32 5.22667 47.4453 4.416 46.336C3.648 45.2267 3.264 43.7547 3.264 41.92C3.264 40.0853 3.712 38.5067 4.608 37.184C5.504 35.8187 6.74133 34.7733 8.32 34.048C9.94133 33.3227 11.8827 32.96 14.144 32.96C16.5333 32.96 18.6453 33.3867 20.48 34.24C22.3573 35.0507 23.8933 36.288 25.088 37.952L21.376 41.664C20.5227 40.5547 19.456 39.7013 18.176 39.104C16.9387 38.5067 15.5307 38.208 13.952 38.208C12.288 38.208 11.008 38.5067 10.112 39.104C9.25867 39.6587 8.832 40.448 8.832 41.472C8.832 42.496 9.216 43.2853 9.984 43.84C10.752 44.3947 11.7547 44.864 12.992 45.248C14.272 45.632 15.5947 46.0373 16.96 46.464C18.3253 46.848 19.6267 47.3813 20.864 48.064C22.1013 48.7467 23.104 49.664 23.872 50.816C24.6827 51.968 25.088 53.4827 25.088 55.36C25.088 58.2187 24.064 60.48 22.016 62.144C20.0107 63.808 17.3013 64.64 13.888 64.64ZM31.5365 64V18.304H37.2965V64H31.5365ZM59.612 64.64C56.6253 64.64 53.9373 63.936 51.548 62.528C49.1587 61.12 47.26 59.2213 45.852 56.832C44.444 54.4 43.74 51.6907 43.74 48.704C43.74 45.76 44.444 43.1147 45.852 40.768C47.26 38.3787 49.1587 36.48 51.548 35.072C53.9373 33.664 56.6253 32.96 59.612 32.96C62.556 32.96 65.2227 33.664 67.612 35.072C70.044 36.4373 71.964 38.3147 73.372 40.704C74.78 43.0933 75.484 45.76 75.484 48.704C75.484 51.6907 74.78 54.4 73.372 56.832C71.964 59.2213 70.044 61.12 67.612 62.528C65.2227 63.936 62.556 64.64 59.612 64.64ZM59.612 59.072C61.532 59.072 63.2387 58.624 64.732 57.728C66.2253 56.832 67.3987 55.616 68.252 54.08C69.1053 52.5013 69.532 50.7093 69.532 48.704C69.532 46.7413 69.084 44.992 68.188 43.456C67.3347 41.92 66.1613 40.7253 64.668 39.872C63.2173 38.976 61.532 38.528 59.612 38.528C57.692 38.528 55.9853 38.976 54.492 39.872C52.9987 40.7253 51.8253 41.92 50.972 43.456C50.1187 44.992 49.692 46.7413 49.692 48.704C49.692 50.7093 50.1187 52.5013 50.972 54.08C51.8253 55.616 52.9987 56.832 54.492 57.728C55.9853 58.624 57.692 59.072 59.612 59.072ZM97.974 64.64C95.67 64.64 93.5793 64.1707 91.702 63.232C89.8673 62.2507 88.3953 60.9067 87.286 59.2C86.1767 57.4933 85.558 55.552 85.43 53.376V44.224C85.558 42.0053 86.1767 40.064 87.286 38.4C88.438 36.6933 89.9313 35.3707 91.766 34.432C93.6433 33.4507 95.7127 32.96 97.974 32.96C100.747 32.96 103.243 33.664 105.462 35.072C107.723 36.48 109.494 38.3787 110.774 40.768C112.054 43.1573 112.694 45.8453 112.694 48.832C112.694 51.8187 112.054 54.5067 110.774 56.896C109.494 59.2853 107.723 61.184 105.462 62.592C103.243 63.9573 100.747 64.64 97.974 64.64ZM81.974 76.736V33.6H87.734V41.6L86.646 48.96L87.734 56.384V76.736H81.974ZM97.014 59.2C98.934 59.2 100.619 58.752 102.07 57.856C103.521 56.96 104.673 55.744 105.526 54.208C106.379 52.6293 106.806 50.816 106.806 48.768C106.806 46.7627 106.379 44.9707 105.526 43.392C104.673 41.8133 103.521 40.5973 102.07 39.744C100.619 38.848 98.9553 38.4 97.078 38.4C95.158 38.4 93.4727 38.848 92.022 39.744C90.5713 40.5973 89.4407 41.8133 88.63 43.392C87.8193 44.9707 87.414 46.784 87.414 48.832C87.414 50.8373 87.798 52.6293 88.566 54.208C89.3767 55.744 90.5073 56.96 91.958 57.856C93.4513 58.752 95.1367 59.2 97.014 59.2Z" fill="white"/>
</svg>
